<svg width="37" height="37" viewBox="0 0 37 37" fill="none" xmlns="http://www.w3.org/2000/svg">
<g clip-path="url(#clip0)">
<path d="M23.921 20.168C23.921 23.385 21.304 26.002 18.087 26.002C14.87 26.002 12.254 23.385 12.254 20.168C12.254 16.951 14.87 14.334 18.087 14.334C21.304 14.334 23.921 16.952 23.921 20.168ZM36.174 11.884V28.454C36.174 30.663 34.383 32.454 32.174 32.454H4C1.791 32.454 0 30.663 0 28.454V11.884C0 9.675 1.791 7.884 4 7.884H8.92V6.5C8.92 4.567 10.486 3 12.42 3H23.754C25.688 3 27.254 4.567 27.254 6.5V7.883H32.174C34.383 7.884 36.174 9.675 36.174 11.884ZM26.921 20.168C26.921 15.297 22.958 11.334 18.087 11.334C13.217 11.334 9.254 15.297 9.254 20.168C9.254 25.039 13.217 29.002 18.087 29.002C22.958 29.002 26.921 25.039 26.921 20.168Z" fill="#E9E9E9" fill-opacity="0.71"/>
</g>
<defs>
<clipPath id="clip0">
<rect width="36.174" height="36.174" fill="white"/>
</clipPath>
</defs>
</svg>
