<?xml version="1.0" encoding="iso-8859-1"?>
<!-- Generator: Adobe Illustrator 19.0.0, SVG Export Plug-In . SVG Version: 6.00 Build 0)  -->
<svg version="1.1" id="Layer_1" xmlns="http://www.w3.org/2000/svg" xmlns:xlink="http://www.w3.org/1999/xlink" x="0px" y="0px"
	 viewBox="0 0 469.333 469.333" style="enable-background:new 0 0 469.333 469.333;" xml:space="preserve">
<g>
	<g>
		<path d="M277.333,89.144V52.607C277.333-17.536,0-17.536,0,52.607v213.706c0,27.574,43.163,44.763,95.089,50.874
			C76.096,325.705,64,337.211,64,351.795v64.112c0,35.072,69.76,53.426,138.667,53.426s138.667-18.355,138.667-53.426v-32.233
			c65.254-1.794,128-19.988,128-53.249V138.09C469.333,93.808,358.837,77.515,277.333,89.144z M138.667,21.333
			c75.917,0,117.333,21.135,117.333,32c0,10.865-41.417,32-117.333,32s-117.333-21.135-117.333-32
			C21.333,42.469,62.75,21.333,138.667,21.333z M21.333,83.016c25.883,15.578,71.73,23.651,117.333,23.651
			S230.117,98.594,256,83.016v10.6c-37.069,8.221-64,23.234-64,45.051v6.311c-16.717,2.682-34.762,4.355-53.333,4.355
			c-75.917,0-117.333-21.135-117.333-32V83.016z M213.333,296.349c2.03,1.221,4.142,2.408,6.409,3.536
			c-2.135-0.089-4.266-0.176-6.409-0.232V296.349z M21.333,147.016c25.883,15.578,71.73,23.651,117.333,23.651
			c18.464,0,36.411-1.658,53.333-4.186v53.164c-16.717,2.682-34.762,4.355-53.333,4.355c-75.917,0-117.333-21.135-117.333-32
			V147.016z M21.333,266.667v-44.984c25.883,15.578,71.73,23.651,117.333,23.651c18.464,0,36.411-1.658,53.333-4.186v53.164
			c-16.717,2.682-34.762,4.355-53.333,4.355C62.75,298.667,21.333,277.531,21.333,266.667z M320,416c0,10.865-41.417,32-117.333,32
			S85.333,426.865,85.333,416v-34.318c25.883,15.578,71.73,23.651,117.333,23.651c43.652,0,87.587-7.378,113.971-21.669
			c1.108,0.042,2.249,0.047,3.362,0.081V416z M202.667,384c-75.917,0-117.333-21.135-117.333-32c0-10.865,41.417-32,117.333-32
			S320,341.135,320,352C320,362.865,278.583,384,202.667,384z M448,330.667c0,10.324-37.796,29.708-106.667,31.63V352
			c0-13.327-10.085-24.099-26.353-32.353c5.216,0.211,10.448,0.353,15.686,0.353c45.603,0,91.451-8.073,117.333-23.651V330.667z
			 M448,266.667c0,10.865-41.417,32-117.333,32s-117.333-21.135-117.333-32v-34.318C239.216,247.927,285.064,256,330.667,256
			c45.603,0,91.451-8.073,117.333-23.651V266.667z M448,202.667c0,10.865-41.417,32-117.333,32s-117.333-21.135-117.333-32v-34.318
			C239.216,183.927,285.064,192,330.667,192c45.603,0,91.451-8.073,117.333-23.651V202.667z M330.667,170.667
			c-75.917,0-117.333-21.135-117.333-32s41.417-32,117.333-32S448,127.802,448,138.667S406.583,170.667,330.667,170.667z"/>
	</g>
</g>
<g>
</g>
<g>
</g>
<g>
</g>
<g>
</g>
<g>
</g>
<g>
</g>
<g>
</g>
<g>
</g>
<g>
</g>
<g>
</g>
<g>
</g>
<g>
</g>
<g>
</g>
<g>
</g>
<g>
</g>
</svg>
