<svg width="36" height="36" viewBox="0 0 36 36" fill="none" xmlns="http://www.w3.org/2000/svg">
<path d="M32.4 1.79999C30.4158 1.79641 28.8043 3.40206 28.8007 5.38635C28.799 6.32158 29.1621 7.22067 29.8128 7.89243L23.2356 21.0445C23.0915 21.0206 22.946 21.0057 22.8 21.0001C22.3353 21.001 21.8751 21.0923 21.4452 21.2689L16.3392 15.5269C16.6373 14.9999 16.7959 14.4056 16.8 13.8001C16.8 11.8119 15.1883 10.2001 13.2 10.2001C11.2118 10.2001 9.60005 11.8119 9.60005 13.8001C9.60356 14.6594 9.91723 15.4886 10.4832 16.1353L4.24322 27.0648C4.03116 27.024 3.81593 27.0023 3.6 27C1.61177 27 0 28.6118 0 30.6C0 32.5882 1.61177 34.2 3.6 34.2C5.58823 34.2 7.2 32.5882 7.2 30.6C7.19648 29.7406 6.88282 28.9114 6.3168 28.2648L12.5568 17.3352C13.2267 17.4675 13.9208 17.3965 14.55 17.1312L19.6561 22.8732C19.3597 23.4006 19.2027 23.995 19.2001 24.6C19.1941 26.5882 20.801 28.2049 22.7892 28.2109C24.7774 28.2168 26.394 26.61 26.4 24.6217C26.4028 23.6838 26.0395 22.7817 25.3872 22.1077L31.9644 8.95563C32.1086 8.97953 32.254 8.99437 32.4 9C34.3882 9 36 7.38822 36 5.39999C36 3.41177 34.3882 1.79999 32.4 1.79999ZM3.6 31.8C2.93723 31.8 2.39998 31.2628 2.39998 30.6C2.39998 29.9372 2.93723 29.4 3.6 29.4C4.26277 29.4 4.80002 29.9372 4.80002 30.6C4.80002 31.2628 4.26277 31.8 3.6 31.8ZM13.2 15C12.5372 15 12 14.4627 12 13.7999C12 13.1372 12.5372 12.5999 13.2 12.5999C13.8627 12.5999 14.4 13.1372 14.4 13.7999C14.4 14.4627 13.8627 15 13.2 15ZM22.8 25.8C22.1373 25.8 21.6 25.2627 21.6 24.6C21.6 23.9372 22.1373 23.3999 22.8 23.3999C23.4628 23.3999 24 23.9372 24 24.6C24 25.2627 23.4627 25.8 22.8 25.8ZM32.4 6.60002C31.7372 6.60002 31.2 6.06276 31.2 5.39999C31.2 4.73723 31.7372 4.19997 32.4 4.19997C33.0628 4.19997 33.6 4.73723 33.6 5.39999C33.6 6.06276 33.0628 6.60002 32.4 6.60002Z" fill="#333333"/>
</svg>
