<svg width="36" height="36" viewBox="0 0 36 36" fill="none" xmlns="http://www.w3.org/2000/svg">
<g clip-path="url(#clip0)">
<path d="M35.1 15.588C35.0989 15.5872 35.0981 15.5861 35.0973 15.5852L20.4121 0.900606C19.7862 0.274384 18.954 -0.0703125 18.0687 -0.0703125C17.1835 -0.0703125 16.3513 0.274384 15.7251 0.900606L1.04759 15.5778C1.04264 15.5828 1.03742 15.588 1.03275 15.5929C-0.252649 16.8857 -0.250452 18.9833 1.03907 20.2728C1.62821 20.8623 2.40605 21.2034 3.23799 21.2394C3.27205 21.2427 3.3061 21.2443 3.34044 21.2443H3.92546V32.051C3.92546 34.1898 5.6657 35.9298 7.80446 35.9298H13.5498C14.1323 35.9298 14.6045 35.4573 14.6045 34.8751V26.4024C14.6045 25.4265 15.3985 24.6328 16.3744 24.6328H19.7631C20.739 24.6328 21.5327 25.4265 21.5327 26.4024V34.8751C21.5327 35.4573 22.0049 35.9298 22.5874 35.9298H28.3327C30.4718 35.9298 32.2117 34.1898 32.2117 32.051V21.2443H32.7545C33.6394 21.2443 34.4716 20.8996 35.0981 20.2731C36.389 18.9817 36.3896 16.8803 35.1 15.588ZM33.6065 18.7817C33.3788 19.0094 33.0761 19.1349 32.7545 19.1349H31.157C30.5745 19.1349 30.1024 19.6071 30.1024 20.1896V32.051C30.1024 33.0266 29.3086 33.8204 28.3327 33.8204H23.6421V26.4024C23.6421 24.2636 21.9021 22.5234 19.7631 22.5234H16.3744C14.2353 22.5234 12.4951 24.2636 12.4951 26.4024V33.8204H7.80446C6.82888 33.8204 6.03484 33.0266 6.03484 32.051V20.1896C6.03484 19.6071 5.5627 19.1349 4.98015 19.1349H3.4102C3.39372 19.1338 3.37752 19.133 3.36076 19.1327C3.04655 19.1272 2.75184 19.0025 2.53102 18.7814C2.06135 18.3118 2.06135 17.5474 2.53102 17.0775C2.53129 17.0775 2.53129 17.0772 2.53157 17.0769L2.53239 17.0761L17.217 2.392C17.4444 2.16431 17.7468 2.03907 18.0687 2.03907C18.3904 2.03907 18.6928 2.16431 18.9205 2.392L33.6018 17.0731C33.604 17.0753 33.6065 17.0775 33.6087 17.0797C34.0758 17.5501 34.075 18.3129 33.6065 18.7817Z" fill="#333333"/>
</g>
<defs>
<clipPath id="clip0">
<rect width="36" height="36" fill="white"/>
</clipPath>
</defs>
</svg>
