<svg width="36" height="36" viewBox="0 0 36 36" fill="none" xmlns="http://www.w3.org/2000/svg">
<g clip-path="url(#clip0)">
<path d="M19.1296 36H16.8703C15.0429 36 13.5562 34.5133 13.5562 32.686V31.9216C12.7793 31.6734 12.0245 31.3601 11.2994 30.9848L10.7577 31.5265C9.44571 32.8401 7.34414 32.8016 6.07029 31.526L4.47342 29.9292C3.19732 28.6545 3.16062 26.5537 4.47384 25.2418L5.01511 24.7006C4.63985 23.9754 4.32661 23.2208 4.07834 22.4438H3.31404C1.48676 22.4438 0 20.9571 0 19.1297V16.8703C0 15.0429 1.48676 13.5563 3.31411 13.5563H4.07841C4.32668 12.7793 4.63992 12.0246 5.01518 11.2994L4.47349 10.7578C3.16104 9.44677 3.19725 7.34569 4.47391 6.07043L6.07092 4.47349C7.34773 3.19493 9.4488 3.16301 10.7582 4.47391L11.2994 5.01511C12.0246 4.63992 12.7794 4.32661 13.5563 4.07834V3.31404C13.5563 1.48669 15.0429 0 16.8704 0H19.1297C20.9571 0 22.4438 1.48669 22.4438 3.31404V4.07841C23.2206 4.32661 23.9754 4.63992 24.7006 5.01518L25.2423 4.47349C26.5542 3.15991 28.6558 3.19845 29.9296 4.47398L31.5265 6.07078C32.8026 7.34548 32.8393 9.44634 31.5261 10.7582L30.9848 11.2994C31.3601 12.0246 31.6733 12.7792 31.9216 13.5563H32.6859C34.5132 13.5563 36 15.0429 36 16.8703V19.1297C36 20.9571 34.5132 22.4438 32.6859 22.4438H31.9216C31.6733 23.2207 31.3601 23.9754 30.9848 24.7006L31.5265 25.2423C32.839 26.5533 32.8027 28.6544 31.5261 29.9296L29.9291 31.5266C28.6523 32.8051 26.5512 32.8371 25.2418 31.5262L24.7006 30.985C23.9754 31.3601 23.2206 31.6735 22.4438 31.9217V32.6861C22.4438 34.5133 20.9571 36 19.1296 36ZM11.652 28.7698C12.6593 29.3655 13.7436 29.8156 14.8745 30.1075C15.3402 30.2276 15.6656 30.6477 15.6656 31.1287V32.686C15.6656 33.3502 16.2061 33.8906 16.8704 33.8906H19.1297C19.794 33.8906 20.3344 33.3502 20.3344 32.686V31.1287C20.3344 30.6477 20.6599 30.2276 21.1256 30.1075C22.2565 29.8156 23.3407 29.3655 24.3481 28.7698C24.7626 28.5247 25.2903 28.5913 25.6308 28.9318L26.7339 30.035C27.2095 30.5111 27.9732 30.5001 28.4371 30.0355L30.0351 28.4375C30.4979 27.9753 30.5134 27.2114 30.0355 26.7342L28.932 25.6307C28.5915 25.2902 28.5249 24.7624 28.7699 24.348C29.3657 23.3407 29.8157 22.2565 30.1075 21.1255C30.2278 20.6598 30.6478 20.3344 31.1287 20.3344H32.686C33.3502 20.3344 33.8907 19.794 33.8907 19.1298V16.8704C33.8907 16.2061 33.3502 15.6657 32.686 15.6657H31.1287C30.6477 15.6657 30.2278 15.3403 30.1075 14.8746C29.8157 13.7436 29.3656 12.6594 28.7699 11.6521C28.5249 11.2377 28.5915 10.7099 28.932 10.3695L30.0351 9.26634C30.512 8.79005 30.4995 8.02645 30.0355 7.56302L28.4377 5.96517C27.9745 5.50139 27.2107 5.48782 26.7344 5.96475L25.6309 7.0683C25.2904 7.40883 24.7625 7.47548 24.3482 7.23038C23.3408 6.63462 22.2566 6.18455 21.1257 5.89268C20.6599 5.77252 20.3345 5.35247 20.3345 4.87146V3.31404C20.3345 2.6498 19.794 2.10938 19.1298 2.10938H16.8704C16.2062 2.10938 15.6657 2.6498 15.6657 3.31404V4.87132C15.6657 5.35233 15.3403 5.77238 14.8745 5.89254C13.7436 6.18441 12.6594 6.63448 11.652 7.23023C11.2375 7.47527 10.7098 7.40862 10.3693 7.06816L9.26627 5.96503C8.79068 5.48887 8.02688 5.49991 7.56302 5.96454L5.96503 7.56246C5.50223 8.0247 5.48677 8.7885 5.96461 9.26578L7.06816 10.3693C7.40862 10.7098 7.47527 11.2376 7.23023 11.652C6.63448 12.6593 6.18448 13.7435 5.89261 14.8745C5.77238 15.3402 5.35233 15.6656 4.87139 15.6656H3.31411C2.64987 15.6656 2.10938 16.206 2.10938 16.8703V19.1297C2.10938 19.794 2.64987 20.3344 3.31411 20.3344H4.87132C5.35233 20.3344 5.7723 20.6598 5.89254 21.1255C6.18441 22.2564 6.63448 23.3407 7.23016 24.348C7.4752 24.7624 7.40855 25.2901 7.06809 25.6306L5.96496 26.7337C5.4881 27.21 5.50055 27.9736 5.96454 28.437L7.56239 30.0349C8.02554 30.4987 8.78941 30.5123 9.26571 30.0353L10.3692 28.9318C10.6201 28.681 11.142 28.4681 11.652 28.7698Z" fill="#333333"/>
<path d="M17.9998 25.8328C13.6807 25.8328 10.167 22.319 10.167 18C10.167 13.681 13.6807 10.1672 17.9998 10.1672C22.3189 10.1672 25.8326 13.681 25.8326 18C25.8326 22.319 22.3189 25.8328 17.9998 25.8328ZM17.9998 12.2766C14.8438 12.2766 12.2764 14.8441 12.2764 18C12.2764 21.1559 14.8439 23.7234 17.9998 23.7234C21.1557 23.7234 23.7232 21.1559 23.7232 18C23.7232 14.8441 21.1558 12.2766 17.9998 12.2766Z" fill="#333333"/>
</g>
<defs>
<clipPath id="clip0">
<rect width="36" height="36" fill="white"/>
</clipPath>
</defs>
</svg>
