<svg width="36" height="36" viewBox="0 0 36 36" fill="none" xmlns="http://www.w3.org/2000/svg">
<path d="M17.7432 17.3413C20.1256 17.3413 22.1883 16.4869 23.8741 14.801C25.5594 13.1155 26.4142 11.053 26.4142 8.67039C26.4142 6.28856 25.5597 4.22588 23.8739 2.53976C22.188 0.85446 20.1253 0 17.7432 0C15.3606 0 13.2982 0.85446 11.6126 2.54003C9.927 4.22561 9.07227 6.28829 9.07227 8.67039C9.07227 11.053 9.927 13.1157 11.6126 14.8013C13.2987 16.4866 15.3614 17.3413 17.7432 17.3413ZM13.1045 4.0317C14.3979 2.73834 15.9151 2.10965 17.7432 2.10965C19.5711 2.10965 21.0886 2.73834 22.3822 4.0317C23.6756 5.32534 24.3045 6.84282 24.3045 8.67039C24.3045 10.4985 23.6756 12.0157 22.3822 13.3094C21.0886 14.603 19.5711 15.2317 17.7432 15.2317C15.9156 15.2317 14.3984 14.6027 13.1045 13.3094C11.8109 12.016 11.1819 10.4985 11.1819 8.67039C11.1819 6.84282 11.8109 5.32534 13.1045 4.0317Z" fill="#333333"/>
<path d="M32.9153 27.6822C32.8667 26.9807 32.7684 26.2155 32.6236 25.4075C32.4775 24.5934 32.2894 23.8238 32.0641 23.1204C31.8312 22.3934 31.5151 21.6754 31.1237 20.9874C30.718 20.2733 30.2412 19.6515 29.7062 19.1398C29.1467 18.6045 28.4617 18.1741 27.6696 17.8602C26.8802 17.5479 26.0055 17.3897 25.0697 17.3897C24.7022 17.3897 24.3468 17.5405 23.6604 17.9873C23.238 18.2628 22.7439 18.5814 22.1924 18.9338C21.7208 19.2343 21.0819 19.5158 20.2928 19.7707C19.523 20.0198 18.7413 20.1461 17.9695 20.1461C17.1983 20.1461 16.4166 20.0198 15.6462 19.7707C14.8579 19.5161 14.2188 19.2346 13.748 18.9341C13.2017 18.585 12.7073 18.2664 12.2786 17.9871C11.5928 17.5402 11.2374 17.3894 10.8699 17.3894C9.93384 17.3894 9.05933 17.5479 8.27023 17.8604C7.47867 18.1738 6.7934 18.6042 6.23337 19.1401C5.69833 19.652 5.22153 20.2736 4.81613 20.9874C4.42529 21.6754 4.10889 22.3931 3.87598 23.1207C3.65103 23.8241 3.46289 24.5934 3.31677 25.4075C3.17175 26.2144 3.0737 26.9799 3.02509 27.683C2.97729 28.3705 2.95312 29.086 2.95312 29.8089C2.95312 31.6881 3.55051 33.2094 4.72852 34.3314C5.89197 35.4385 7.43115 35.9999 9.3035 35.9999H26.6377C28.5095 35.9999 30.0487 35.4385 31.2124 34.3314C32.3907 33.2102 32.9881 31.6884 32.9881 29.8086C32.9878 29.0832 32.9634 28.3677 32.9153 27.6822ZM29.7578 32.8029C28.9891 33.5346 27.9684 33.8903 26.6375 33.8903H9.3035C7.97223 33.8903 6.9516 33.5346 6.18311 32.8032C5.42917 32.0855 5.06277 31.1058 5.06277 29.8089C5.06277 29.1343 5.08502 28.4683 5.12952 27.8289C5.17291 27.2015 5.26163 26.5124 5.39319 25.7802C5.5231 25.057 5.68845 24.3783 5.8851 23.7639C6.07379 23.1748 6.33115 22.5914 6.6503 22.0295C6.9549 21.4939 7.30536 21.0344 7.69208 20.6641C8.0538 20.3178 8.50974 20.0344 9.04697 19.8218C9.54382 19.6251 10.1022 19.5175 10.7084 19.5012C10.7823 19.5405 10.9138 19.6155 11.127 19.7545C11.5606 20.0371 12.0605 20.3596 12.6131 20.7125C13.2361 21.1096 14.0386 21.4683 14.9974 21.7779C15.9777 22.0948 16.9774 22.2558 17.9698 22.2558C18.9621 22.2558 19.9622 22.0948 20.9419 21.7782C21.9015 21.4681 22.7038 21.1096 23.3275 20.7119C23.8931 20.3505 24.3789 20.0374 24.8126 19.7545C25.0258 19.6158 25.1573 19.5405 25.2312 19.5012C25.8376 19.5175 26.396 19.6251 26.8932 19.8218C27.4301 20.0344 27.886 20.3181 28.2478 20.6641C28.6345 21.0341 28.985 21.4936 29.2896 22.0297C29.609 22.5914 29.8666 23.1751 30.055 23.7637C30.252 24.3789 30.4176 25.0573 30.5472 25.7799C30.6785 26.5135 30.7675 27.2029 30.8109 27.8291V27.8297C30.8557 28.4666 30.8782 29.1324 30.8784 29.8089C30.8782 31.1061 30.5118 32.0855 29.7578 32.8029Z" fill="#333333"/>
</svg>
