<svg width="34" height="34" viewBox="0 0 34 34" fill="none" xmlns="http://www.w3.org/2000/svg">
<g clip-path="url(#clip0)">
<path d="M7.55494 18.3267L22.6854 33.4568C23.0353 33.8071 23.5025 34 24.0006 34C24.4987 34 24.9658 33.8071 25.3158 33.4568L26.43 32.3429C27.1551 31.617 27.1551 30.4372 26.43 29.7124L13.7246 17.007L26.4441 4.28756C26.7941 3.93734 26.9873 3.47046 26.9873 2.97263C26.9873 2.47424 26.7941 2.00737 26.4441 1.65686L25.3299 0.543167C24.9797 0.192943 24.5128 -2.16329e-07 24.0147 -2.59875e-07C23.5166 -3.03421e-07 23.0494 0.192943 22.6995 0.543167L7.55494 15.6871C7.20416 16.0385 7.0115 16.5076 7.0126 17.0062C7.0115 17.5068 7.20416 17.9756 7.55494 18.3267Z" fill="#737373"/>
</g>
<defs>
<clipPath id="clip0">
<rect width="34" height="34" fill="white" transform="translate(34 34) rotate(-180)"/>
</clipPath>
</defs>
</svg>
