<?xml version="1.0" encoding="iso-8859-1"?>
<!-- Generator: Adobe Illustrator 19.0.0, SVG Export Plug-In . SVG Version: 6.00 Build 0)  -->
<svg version="1.1" id="Capa_1" xmlns="http://www.w3.org/2000/svg" xmlns:xlink="http://www.w3.org/1999/xlink" x="0px" y="0px"
	 viewBox="0 0 512 512" style="enable-background:new 0 0 512 512;" xml:space="preserve">
<g>
	<g>
		<path d="M476.853,35.148c-46.864-46.864-122.842-46.864-169.706-0.001L206.853,135.441c-48.475,48.477-43.987,125.717,0,169.706
			c7.366,7.366,15.516,13.372,24.122,18.305l18.305-18.305c12.006-12.008,7.78-26.045,7.564-36.174
			c-2.635-1.868-5.198-3.887-7.564-6.253c-22.573-22.571-23.588-61.265,0-84.853c3.503-3.503,98.166-98.166,100.292-100.292
			c23.399-23.399,61.454-23.399,84.853,0c23.399,23.399,23.399,61.454,0,84.853l-66.293,66.293
			c1.917,10.607,13.422,35.733,7.504,77.181c0.289-0.284,0.635-0.467,0.923-0.754l100.294-100.294
			C523.715,157.99,523.715,82.012,476.853,35.148z"/>
	</g>
</g>
<g>
	<g>
		<path d="M312.918,199.081c-7.365-7.366-15.516-13.372-24.12-18.305l-18.305,18.305c-12.008,12.006-7.782,26.043-7.566,36.172
			c2.637,1.868,5.2,3.887,7.566,6.253c22.573,22.573,23.588,61.265,0,84.853c-3.511,3.511-106.015,106.015-108.066,108.066
			c-23.399,23.399-61.454,23.399-84.853,0c-23.399-23.399-23.399-61.454,0-84.853l74.067-74.067
			c-1.917-10.607-13.423-35.733-7.504-77.181c-0.289,0.284-0.637,0.469-0.925,0.756L35.147,307.147
			c-46.862,46.864-46.862,122.842,0,169.706c46.864,46.862,122.841,46.862,169.705,0l108.066-108.066
			C360.494,321.211,357.894,244.056,312.918,199.081z"/>
	</g>
</g>
<g>
</g>
<g>
</g>
<g>
</g>
<g>
</g>
<g>
</g>
<g>
</g>
<g>
</g>
<g>
</g>
<g>
</g>
<g>
</g>
<g>
</g>
<g>
</g>
<g>
</g>
<g>
</g>
<g>
</g>
</svg>
