<svg width="1024" height="606" viewBox="0 0 1024 606" fill="none" xmlns="http://www.w3.org/2000/svg">
<rect width="1024" height="606" fill="white"/>
<path d="M137.12 451.72C132.32 452.728 127.904 453.016 119.888 453.064V442.936H133.424V437.896H113.6V458.152H117.344C127.232 458.152 132.32 457.912 137.744 456.76L137.12 451.72ZM132.368 474.088C126.8 474.088 123.68 472.84 123.68 470.152C123.68 467.512 126.8 466.264 132.368 466.264C137.984 466.264 141.104 467.512 141.104 470.152C141.104 472.84 137.984 474.088 132.368 474.088ZM132.368 461.224C123.296 461.224 117.44 464.584 117.44 470.152C117.44 475.816 123.296 479.176 132.368 479.176C141.536 479.176 147.344 475.816 147.344 470.152C147.344 464.584 141.536 461.224 132.368 461.224ZM146.96 445.384V434.872H140.576V460.456H146.96V450.52H152.72V445.384H146.96ZM193.09 434.968H186.706V467.176H193.09V434.968ZM183.442 455.464C176.242 453.16 173.17 447.496 173.17 441.64V437.368H166.738V441.64C166.738 447.544 163.57 453.736 156.226 456.232L159.442 461.272C164.578 459.496 168.034 455.896 170.05 451.432C171.97 455.56 175.33 458.824 180.226 460.504L183.442 455.464ZM170.002 473.32V464.104H163.666V478.36H194.194V473.32H170.002ZM214.885 437.848C207.973 437.848 202.741 442.408 202.741 448.744C202.741 455.128 207.973 459.64 214.885 459.64C221.797 459.64 227.077 455.128 227.077 448.744C227.077 442.408 221.797 437.848 214.885 437.848ZM214.885 443.272C218.293 443.272 220.885 445.288 220.885 448.744C220.885 452.2 218.293 454.216 214.885 454.216C211.477 454.216 208.885 452.2 208.885 448.744C208.885 445.288 211.477 443.272 214.885 443.272ZM231.205 434.872V479.224H237.541V434.872H231.205ZM201.685 470.248C209.317 470.248 219.685 470.152 229.189 468.232L228.805 463.672C219.493 465.064 208.645 465.112 200.869 465.112L201.685 470.248ZM289.342 434.872V451.816H285.742V435.592H279.838V464.2C273.31 460.792 271.102 453.448 271.102 445.72V444.52H277.726V439.384H257.71V444.52H264.958V445.72C264.958 454.216 262.846 462.04 256.27 465.88L260.062 470.68C264.19 468.184 266.782 464.056 268.222 458.968C269.758 463.384 272.35 466.936 276.286 469.048L279.838 464.296V477.112H285.742V457H289.342V479.08H295.342V434.872H289.342ZM336.96 445.912H312.768V435.688H306.432V450.952H336.96V445.912ZM321.264 474.184C315.36 474.184 312.336 473.128 312.336 470.824C312.336 468.52 315.36 467.464 321.264 467.464C327.168 467.464 330.192 468.52 330.192 470.824C330.192 473.128 327.168 474.184 321.264 474.184ZM321.264 462.616C311.712 462.616 305.952 465.64 305.952 470.824C305.952 476.008 311.712 479.032 321.264 479.032C330.816 479.032 336.624 476.008 336.624 470.824C336.624 465.64 330.816 462.616 321.264 462.616ZM301.44 454.696V459.736H341.424V454.696H301.44ZM355.634 464.2C353.234 464.2 351.794 460.888 351.794 454.072C351.794 447.304 353.234 443.992 355.634 443.992C358.082 443.992 359.474 447.304 359.474 454.072C359.474 460.888 358.082 464.2 355.634 464.2ZM368.642 451.192H365.138C364.418 442.936 360.866 438.04 355.634 438.04C349.778 438.04 346.082 444.088 346.082 454.072C346.082 464.104 349.778 470.152 355.634 470.152C361.01 470.152 364.61 464.968 365.186 456.328H368.642V477.16H374.546V435.64H368.642V451.192ZM377.618 434.872V479.08H383.618V434.872H377.618ZM114.08 495.432V500.568H128.528C127.376 510.36 121.904 517.368 111.632 522.648L115.184 527.496C129.872 520.056 134.912 508.68 134.912 495.432H114.08ZM152.864 507.768H146.672V490.872H140.336V535.032H146.672V513H152.864V507.768ZM173.602 503.16H182.626V498.12H173.602V491.976H167.266V498.12H158.05V503.16H167.266V504.696C167.266 511.416 163.81 518.904 156.562 522.168L159.97 527.016C165.01 524.76 168.562 520.248 170.53 514.92C172.498 519.96 176.002 524.184 180.994 526.248L184.354 521.4C177.106 518.28 173.602 511.08 173.602 504.696V503.16ZM186.706 490.92V535.128H193.042V490.92H186.706ZM229.573 498.12H205.669V508.68H236.581V504.408H211.909V502.104H235.813V491.688H205.573V495.96H229.573V498.12ZM211.525 528.072H235.957V517.56H205.189V521.832H229.669V524.088H205.237V534.744H237.157V530.472H211.525V528.072ZM200.677 510.792V515.352H240.709V510.792H200.677ZM286.126 507.144H267.934V502.584H286.126V507.144ZM292.366 492.6H286.126V497.64H267.934V492.6H261.646V512.184H292.366V492.6ZM297.118 516.36H257.086V521.4H273.79V535.176H280.126V521.4H297.118V516.36ZM324.624 513.672C324.816 512.472 324.912 511.128 324.912 509.736C324.912 508.056 324.768 506.472 324.48 505.032H332.16V513.672H324.624ZM313.488 519.816C310.272 519.816 308.064 516.312 308.064 509.736C308.064 503.208 310.272 499.704 313.488 499.704C316.752 499.704 318.96 503.208 318.96 509.736C318.96 516.312 316.752 519.816 313.488 519.816ZM332.16 490.872V499.944H322.752C320.784 496.152 317.472 493.992 313.488 493.992C306.912 493.992 302.064 500.04 302.064 509.736C302.064 519.48 306.912 525.576 313.488 525.576C317.76 525.624 321.168 523.128 323.136 518.808H332.16V535.224H338.496V490.872H332.16ZM358.466 520.92C355.49 520.92 353.282 518.904 353.282 515.544C353.282 512.184 355.49 510.12 358.466 510.12C361.442 510.12 363.602 512.184 363.602 515.496C363.602 518.904 361.442 520.92 358.466 520.92ZM358.466 504.984C352.034 504.984 347.234 509.352 347.234 515.496C347.234 521.736 352.034 526.104 358.466 526.104C364.85 526.104 369.602 521.736 369.602 515.496C369.602 509.352 364.85 504.984 358.466 504.984ZM361.586 491.688H355.25V497.448H345.458V502.488H371.186V497.448H361.586V491.688ZM386.738 508.2H380.402V490.92H374.066V535.128H380.402V513.432H386.738V508.2ZM404.117 494.76H398.021V502.2C398.021 509.736 395.669 517.656 389.189 521.592L392.981 526.344C396.965 523.944 399.557 519.72 401.093 514.824C402.485 519.288 404.837 523.032 408.581 525.336L412.037 520.44C406.037 516.456 404.117 509.112 404.117 501.96V494.76ZM412.949 505.848H407.381V510.984H412.949V533.16H418.853V491.64H412.949V505.848ZM421.925 490.92V535.128H427.925V490.92H421.925ZM449.431 516.408C450.967 516.696 452.551 516.84 454.279 516.84C456.007 516.84 457.639 516.696 459.175 516.408V524.856H449.431V516.408ZM454.279 498.072C460.423 498.072 464.551 500.568 464.551 504.984C464.551 509.352 460.423 511.896 454.279 511.896C448.135 511.896 444.055 509.352 444.055 504.984C444.055 500.568 448.135 498.072 454.279 498.072ZM465.463 524.856V514.056C468.775 511.992 470.791 508.824 470.791 504.984C470.791 497.736 463.831 493.08 454.279 493.08C444.775 493.08 437.815 497.736 437.815 504.984C437.767 508.824 439.783 511.992 443.143 514.056V524.856H434.311V529.992H474.343V524.856H465.463ZM483.655 523.336C484.905 523.336 485.944 523.711 486.772 524.461C487.6 525.195 488.014 526.141 488.014 527.297C488.014 528.453 487.6 529.406 486.772 530.156C485.944 530.891 484.905 531.258 483.655 531.258C482.389 531.258 481.342 530.883 480.514 530.133C479.702 529.383 479.295 528.438 479.295 527.297C479.295 526.156 479.702 525.211 480.514 524.461C481.342 523.711 482.389 523.336 483.655 523.336Z" fill="#333333"/>
<ellipse cx="696.787" cy="128.218" rx="109.633" ry="106.218" fill="#C7E991"/>
<ellipse cx="696.787" cy="128.218" rx="109.633" ry="106.218" fill="#C7E991"/>
<ellipse cx="696.787" cy="128.218" rx="109.633" ry="106.218" fill="#C7E991"/>
<ellipse cx="696.787" cy="128.218" rx="109.633" ry="106.218" fill="#C7E991"/>
<ellipse cx="629.163" cy="263.223" rx="109.633" ry="106.218" fill="#FB7A7A"/>
<ellipse cx="519.53" cy="369.441" rx="28.689" ry="27.7953" fill="#71DEF5"/>
<ellipse cx="846.743" cy="164.808" rx="177.257" ry="161.808" fill="#FFFA7B"/>
</svg>
