<svg width="445" height="300" viewBox="0 0 445 300" fill="none" xmlns="http://www.w3.org/2000/svg">
<path d="M22.6 220.6C18.6 221.44 14.92 221.68 8.24 221.72V213.28H19.52V209.08H3V225.96H6.12C14.36 225.96 18.6 225.76 23.12 224.8L22.6 220.6ZM18.64 239.24C14 239.24 11.4 238.2 11.4 235.96C11.4 233.76 14 232.72 18.64 232.72C23.32 232.72 25.92 233.76 25.92 235.96C25.92 238.2 23.32 239.24 18.64 239.24ZM18.64 228.52C11.08 228.52 6.2 231.32 6.2 235.96C6.2 240.68 11.08 243.48 18.64 243.48C26.28 243.48 31.12 240.68 31.12 235.96C31.12 231.32 26.28 228.52 18.64 228.52ZM30.8 215.32V206.56H25.48V227.88H30.8V219.6H35.6V215.32H30.8ZM69.2669 206.64H63.9469V233.48H69.2669V206.64ZM61.2269 223.72C55.2269 221.8 52.6669 217.08 52.6669 212.2V208.64H47.3069V212.2C47.3069 217.12 44.6669 222.28 38.5469 224.36L41.2269 228.56C45.5069 227.08 48.3869 224.08 50.0669 220.36C51.6669 223.8 54.4669 226.52 58.5469 227.92L61.2269 223.72ZM50.0269 238.6V230.92H44.7469V242.8H70.1869V238.6H50.0269ZM87.4538 209.04C81.6938 209.04 77.3338 212.84 77.3338 218.12C77.3338 223.44 81.6938 227.2 87.4538 227.2C93.2138 227.2 97.6138 223.44 97.6138 218.12C97.6138 212.84 93.2138 209.04 87.4538 209.04ZM87.4538 213.56C90.2938 213.56 92.4538 215.24 92.4538 218.12C92.4538 221 90.2938 222.68 87.4538 222.68C84.6138 222.68 82.4538 221 82.4538 218.12C82.4538 215.24 84.6138 213.56 87.4538 213.56ZM101.054 206.56V243.52H106.334V206.56H101.054ZM76.4538 236.04C82.8138 236.04 91.4538 235.96 99.3738 234.36L99.0538 230.56C91.2938 231.72 82.2538 231.76 75.7738 231.76L76.4538 236.04ZM149.552 206.56V220.68H146.552V207.16H141.632V231C136.192 228.16 134.352 222.04 134.352 215.6V214.6H139.872V210.32H123.192V214.6H129.232V215.6C129.232 222.68 127.472 229.2 121.992 232.4L125.152 236.4C128.592 234.32 130.752 230.88 131.952 226.64C133.232 230.32 135.392 233.28 138.672 235.04L141.632 231.08V241.76H146.552V225H149.552V243.4H154.552V206.56H149.552ZM189.258 215.76H169.098V207.24H163.818V219.96H189.258V215.76ZM176.178 239.32C171.258 239.32 168.738 238.44 168.738 236.52C168.738 234.6 171.258 233.72 176.178 233.72C181.098 233.72 183.618 234.6 183.618 236.52C183.618 238.44 181.098 239.32 176.178 239.32ZM176.178 229.68C168.218 229.68 163.418 232.2 163.418 236.52C163.418 240.84 168.218 243.36 176.178 243.36C184.138 243.36 188.978 240.84 188.978 236.52C188.978 232.2 184.138 229.68 176.178 229.68ZM159.658 223.08V227.28H192.978V223.08H159.658ZM204.845 231C202.845 231 201.645 228.24 201.645 222.56C201.645 216.92 202.845 214.16 204.845 214.16C206.885 214.16 208.045 216.92 208.045 222.56C208.045 228.24 206.885 231 204.845 231ZM215.685 220.16H212.765C212.165 213.28 209.205 209.2 204.845 209.2C199.965 209.2 196.885 214.24 196.885 222.56C196.885 230.92 199.965 235.96 204.845 235.96C209.325 235.96 212.325 231.64 212.805 224.44H215.685V241.8H220.605V207.2H215.685V220.16ZM223.165 206.56V243.4H228.165V206.56H223.165ZM3.4 266.36V270.64H15.44C14.48 278.8 9.92 284.64 1.36 289.04L4.32 293.08C16.56 286.88 20.76 277.4 20.76 266.36H3.4ZM35.72 276.64H30.56V262.56H25.28V299.36H30.56V281H35.72V276.64ZM53.0269 272.8H60.5469V268.6H53.0269V263.48H47.7469V268.6H40.0669V272.8H47.7469V274.08C47.7469 279.68 44.8669 285.92 38.8269 288.64L41.6669 292.68C45.8669 290.8 48.8269 287.04 50.4669 282.6C52.1069 286.8 55.0269 290.32 59.1869 292.04L61.9869 288C55.9469 285.4 53.0269 279.4 53.0269 274.08V272.8ZM63.9469 262.6V299.44H69.2269V262.6H63.9469ZM99.6938 268.6H79.7738V277.4H105.534V273.84H84.9738V271.92H104.894V263.24H79.6938V266.8H99.6938V268.6ZM84.6538 293.56H105.014V284.8H79.3738V288.36H99.7738V290.24H79.4138V299.12H106.014V295.56H84.6538V293.56ZM75.6138 279.16V282.96H108.974V279.16H75.6138ZM146.872 276.12H131.712V272.32H146.872V276.12ZM152.072 264H146.872V268.2H131.712V264H126.472V280.32H152.072V264ZM156.032 283.8H122.672V288H136.592V299.48H141.872V288H156.032V283.8ZM178.978 281.56C179.138 280.56 179.218 279.44 179.218 278.28C179.218 276.88 179.098 275.56 178.858 274.36H185.258V281.56H178.978ZM169.698 286.68C167.018 286.68 165.178 283.76 165.178 278.28C165.178 272.84 167.018 269.92 169.698 269.92C172.418 269.92 174.258 272.84 174.258 278.28C174.258 283.76 172.418 286.68 169.698 286.68ZM185.258 262.56V270.12H177.418C175.778 266.96 173.018 265.16 169.698 265.16C164.218 265.16 160.178 270.2 160.178 278.28C160.178 286.4 164.218 291.48 169.698 291.48C173.258 291.52 176.098 289.44 177.738 285.84H185.258V299.52H190.538V262.56H185.258ZM207.205 287.6C204.725 287.6 202.885 285.92 202.885 283.12C202.885 280.32 204.725 278.6 207.205 278.6C209.685 278.6 211.485 280.32 211.485 283.08C211.485 285.92 209.685 287.6 207.205 287.6ZM207.205 274.32C201.845 274.32 197.845 277.96 197.845 283.08C197.845 288.28 201.845 291.92 207.205 291.92C212.525 291.92 216.485 288.28 216.485 283.08C216.485 277.96 212.525 274.32 207.205 274.32ZM209.805 263.24H204.525V268.04H196.365V272.24H217.805V268.04H209.805V263.24ZM230.765 277H225.485V262.6H220.205V299.44H225.485V281.36H230.765V277ZM245.272 265.8H240.192V272C240.192 278.28 238.232 284.88 232.832 288.16L235.992 292.12C239.312 290.12 241.472 286.6 242.752 282.52C243.912 286.24 245.872 289.36 248.992 291.28L251.872 287.2C246.872 283.88 245.272 277.76 245.272 271.8V265.8ZM252.632 275.04H247.992V279.32H252.632V297.8H257.552V263.2H252.632V275.04ZM260.112 262.6V299.44H265.112V262.6H260.112ZM283.059 283.84C284.339 284.08 285.659 284.2 287.099 284.2C288.539 284.2 289.899 284.08 291.179 283.84V290.88H283.059V283.84ZM287.099 268.56C292.219 268.56 295.659 270.64 295.659 274.32C295.659 277.96 292.219 280.08 287.099 280.08C281.979 280.08 278.579 277.96 278.579 274.32C278.579 270.64 281.979 268.56 287.099 268.56ZM296.419 290.88V281.88C299.179 280.16 300.859 277.52 300.859 274.32C300.859 268.28 295.059 264.4 287.099 264.4C279.179 264.4 273.379 268.28 273.379 274.32C273.339 277.52 275.019 280.16 277.819 281.88V290.88H270.459V295.16H303.819V290.88H296.419ZM311.604 289.613C312.646 289.613 313.511 289.926 314.202 290.551C314.892 291.163 315.237 291.951 315.237 292.914C315.237 293.878 314.892 294.672 314.202 295.297C313.511 295.909 312.646 296.215 311.604 296.215C310.549 296.215 309.677 295.902 308.987 295.277C308.31 294.652 307.971 293.865 307.971 292.914C307.971 291.964 308.31 291.176 308.987 290.551C309.677 289.926 310.549 289.613 311.604 289.613Z" fill="#333333"/>
<circle cx="340.5" cy="53.5" r="53.5" fill="#C7E991"/>
<circle cx="340.5" cy="53.5" r="53.5" fill="#C7E991"/>
<circle cx="340.5" cy="53.5" r="53.5" fill="#C7E991"/>
<circle cx="340.5" cy="53.5" r="53.5" fill="#C7E991"/>
<circle cx="307.5" cy="121.5" r="53.5" fill="#FB7A7A"/>
<circle cx="254" cy="175" r="14" fill="#71DEF5"/>
<ellipse cx="427.5" cy="81.5" rx="86.5" ry="81.5" fill="#FFFA7B"/>
</svg>
